# xmcd
# Track frame offsets:
# 183
# 16953
# 32440
# 48785
# 65518
# 80570
# 96428
# 112113
# 120073
# 137878
# 151225
# 167403
# 184898
# 193708
# 210570
#
# Disc length: 2999 seconds
# Revision: 0
# Processed by: cddbd v1.4PL0 Copyright (c) Steve Scherf et al.
# Submitted via: VisiTrax 2.9.5.180 - For more info visit www.synapsa.com
#
DISCID=c00bb50f
DTITLE=Dave Sheriff - One man band extraordinaire
DYEAR=1900
DGENRE=Irsk
TTITLE0=I can't wait for payday
TTITLE1=Fly away
TTITLE2=Always on my mind (forever in my heart)
TTITLE3=One of the best
TTITLE4=Tia Maria
TTITLE5=To whom it may consern
TTITLE6=We-ve got memories
TTITLE7=The whistling waltzer
TTITLE8=It's different with you
TTITLE9=Crazy woman
TTITLE10=Leaving always seems harder tomorrow
TTITLE11=Your special day
TTITLE12=Jivin' boogie
TTITLE13=Old fashioned waltz
TTITLE14=Just wear a smile (when you're saying goodbye)
EXTD=
EXTT0=
EXTT1=
EXTT2=
EXTT3=
EXTT4=
EXTT5=
EXTT6=
EXTT7=
EXTT8=
EXTT9=
EXTT10=
EXTT11=
EXTT12=
EXTT13=
EXTT14=
PLAYORDER=
